<?xml version="1.0" encoding="utf-8" ?>
<svg xmlns="http://www.w3.org/2000/svg" xmlns:xlink="http://www.w3.org/1999/xlink" width="2304" height="2304">
	<path fill="#FECF01" transform="matrix(4.608 0 0 4.608 0 -3.05176e-05)" d="M241.935 50.1137Q244.404 50.0033 246.874 49.9542Q249.345 49.9051 251.816 49.9175Q254.287 49.9298 256.757 50.0035Q259.226 50.0773 261.694 50.2124Q264.161 50.3475 266.624 50.5438Q269.088 50.7402 271.545 50.9977Q274.003 51.2552 276.453 51.5736Q278.904 51.8921 281.345 52.2714Q283.787 52.6507 286.219 53.0905Q288.65 53.5303 291.07 54.0305Q293.49 54.5306 295.897 55.0907Q298.303 55.6507 300.695 56.2705Q303.087 56.8902 305.463 57.5691Q307.839 58.2481 310.198 58.9859Q312.556 59.7237 314.895 60.5199Q317.234 61.316 319.553 62.1701Q321.872 63.0241 324.169 63.9355Q326.466 64.8469 328.739 65.8151Q331.012 66.7833 333.261 67.8077Q335.51 68.8321 337.732 69.912Q339.955 70.9919 342.15 72.1268Q344.345 73.2616 346.511 74.4506Q348.677 75.6397 350.813 76.8821Q352.949 78.1246 355.054 79.4198Q357.158 80.715 359.23 82.062Q361.301 83.4091 363.339 84.8072Q365.376 86.2053 367.378 87.6536Q369.38 89.102 371.346 90.5996Q373.311 92.0972 375.239 93.6432Q377.167 95.1892 379.055 96.7826Q380.944 98.376 382.792 100.016Q384.641 101.656 386.448 103.341Q388.211 104.978 389.935 106.657Q391.658 108.337 393.34 110.057Q395.023 111.777 396.663 113.538Q398.303 115.298 399.9 117.098Q401.498 118.897 403.051 120.735Q404.604 122.572 406.113 124.447Q407.622 126.321 409.084 128.232Q410.547 130.142 411.964 132.087Q413.38 134.033 414.749 136.011Q416.118 137.99 417.439 140.001Q418.76 142.013 420.032 144.055Q421.303 146.098 422.526 148.17Q423.748 150.243 424.92 152.344Q426.092 154.446 427.212 156.575Q428.333 158.704 429.402 160.86Q430.471 163.016 431.488 165.196Q432.505 167.377 433.468 169.582Q434.432 171.787 435.342 174.014Q436.253 176.241 437.109 178.49Q437.965 180.739 438.767 183.007Q439.569 185.276 440.315 187.563Q441.062 189.851 441.753 192.155Q442.445 194.46 443.08 196.781Q443.715 199.102 444.295 201.437Q444.874 203.773 445.397 206.121Q445.919 208.47 446.385 210.831Q446.851 213.191 447.26 215.562Q447.669 217.934 448.02 220.314Q448.371 222.694 448.665 225.082Q448.959 227.471 449.195 229.865Q449.431 232.26 449.609 234.659Q449.788 237.059 449.908 239.462C450.327 249.852 450.249 260.554 449.19 270.9Q448.842 274.142 448.388 277.371Q447.935 280.601 447.376 283.813Q446.818 287.026 446.156 290.219Q445.494 293.412 444.728 296.581Q443.962 299.751 443.094 302.894Q442.226 306.037 441.256 309.151Q440.286 312.264 439.215 315.344Q438.144 318.424 436.974 321.468Q435.804 324.511 434.536 327.516Q433.267 330.52 431.902 333.481Q430.537 336.442 429.076 339.357Q427.615 342.273 426.06 345.139Q424.506 348.005 422.858 350.82Q421.211 353.634 419.474 356.393Q417.736 359.153 415.91 361.854Q414.083 364.555 412.17 367.196C407.027 374.254 401.434 380.73 395.51 387.133Q393.865 388.887 392.179 390.6Q390.492 392.313 388.764 393.985Q387.036 395.656 385.268 397.285Q383.5 398.915 381.693 400.5Q379.886 402.086 378.041 403.627Q376.196 405.168 374.314 406.664Q372.432 408.16 370.514 409.61Q368.596 411.06 366.644 412.463Q364.691 413.865 362.705 415.22Q360.719 416.575 358.701 417.881Q356.682 419.187 354.633 420.443Q352.583 421.7 350.504 422.907Q348.424 424.113 346.316 425.268Q344.208 426.424 342.072 427.528Q339.936 428.632 337.774 429.683Q335.612 430.735 333.425 431.734Q331.238 432.732 329.028 433.678Q326.817 434.623 324.585 435.514Q322.352 436.405 320.098 437.242Q317.844 438.079 315.571 438.86Q313.297 439.642 311.005 440.368Q308.713 441.094 306.404 441.764Q304.096 442.434 301.771 443.048Q299.447 443.662 297.108 444.219Q294.769 444.776 292.418 445.276Q290.066 445.776 287.703 446.219Q285.34 446.662 282.967 447.047Q280.594 447.432 278.212 447.76Q275.831 448.087 273.442 448.356Q271.052 448.625 268.658 448.837Q266.263 449.048 263.864 449.201Q261.464 449.353 259.062 449.448Q250.514 449.803 241.964 449.487Q233.415 449.171 224.916 448.187Q221.109 447.71 217.323 447.086Q213.537 446.462 209.778 445.692Q206.02 444.922 202.293 444.008Q198.567 443.093 194.879 442.034Q191.191 440.976 187.547 439.775Q183.903 438.575 180.308 437.235Q176.712 435.894 173.172 434.415Q169.632 432.937 166.151 431.322Q162.67 429.708 159.255 427.96Q155.839 426.211 152.494 424.333Q149.149 422.454 145.879 420.447Q142.608 418.439 139.419 416.307Q136.229 414.175 133.124 411.921Q130.019 409.667 127.003 407.295Q123.988 404.922 121.066 402.435Q118.145 399.948 115.322 397.349Q113.498 395.689 111.715 393.983Q109.932 392.278 108.192 390.529Q106.452 388.781 104.756 386.989Q103.06 385.198 101.408 383.365Q99.7571 381.532 98.1517 379.659Q96.5463 377.786 94.9878 375.874Q93.4292 373.962 91.9185 372.011Q90.4078 370.061 88.9459 368.074Q87.4839 366.087 86.0716 364.064Q84.6593 362.041 83.2976 359.984Q81.9358 357.927 80.6254 355.837Q79.315 353.747 78.0567 351.625Q76.7984 349.503 75.5931 347.351Q74.3878 345.198 73.2361 343.017Q72.0844 340.835 70.9871 338.626Q69.8898 336.416 68.8476 334.18Q67.8053 331.944 66.8188 329.683Q65.8322 327.422 64.902 325.137Q63.9717 322.852 63.0983 320.545Q62.2249 318.238 61.4089 315.91Q60.5929 313.582 59.8347 311.234Q59.0766 308.887 58.3769 306.521Q57.6771 304.155 57.0362 301.773Q56.3952 299.391 55.8134 296.994Q55.2317 294.596 54.7094 292.185Q54.1872 289.774 53.7248 287.351Q53.2625 284.928 52.8602 282.494Q52.458 280.06 52.1162 277.617Q51.7743 275.174 51.4931 272.723Q51.2119 270.272 50.9914 267.815Q50.7709 265.358 50.6114 262.896Q50.4518 260.434 50.3533 257.969Q50.2502 255.506 50.2077 253.041Q50.1651 250.576 50.1832 248.111Q50.2012 245.645 50.2798 243.181Q50.3584 240.717 50.4975 238.256Q50.6366 235.794 50.8361 233.337Q51.0356 230.88 51.2954 228.428Q51.5552 225.977 51.8752 223.532Q52.1952 221.088 52.5751 218.652Q52.955 216.216 53.3947 213.79Q53.8343 211.364 54.3334 208.95Q54.8325 206.536 55.3908 204.134Q55.9491 201.733 56.5661 199.346Q57.1832 196.959 57.8588 194.588Q58.5343 192.217 59.2679 189.864Q60.0014 187.51 60.7926 185.175Q61.5838 182.84 62.4321 180.525Q63.2804 178.211 64.1853 175.917Q65.0902 173.624 66.0511 171.354Q67.0121 169.083 68.0285 166.837Q69.045 164.591 70.1163 162.371Q71.1876 160.15 72.3132 157.957Q73.4387 155.764 74.6178 153.598Q75.7969 151.433 77.0288 149.298Q78.2607 147.162 79.5447 145.058Q80.8287 142.953 82.164 140.881Q83.4993 138.808 84.8851 136.77Q86.271 134.731 87.7064 132.726Q89.1419 130.722 90.6262 128.753Q92.1105 126.785 93.6427 124.854Q95.1749 122.922 96.7541 121.029Q98.3333 119.136 99.9585 117.282Q101.584 115.428 103.254 113.615Q104.917 111.822 106.624 110.07Q108.331 108.318 110.081 106.608Q111.83 104.899 113.621 103.233Q115.412 101.567 117.244 99.9453Q119.075 98.3239 120.946 96.7481Q122.817 95.1723 124.726 93.6429Q126.635 92.1136 128.581 90.6317Q130.527 89.1498 132.509 87.7162Q134.491 86.2826 136.507 84.8982Q138.524 83.5138 140.574 82.1795Q142.624 80.8451 144.706 79.5615Q146.789 78.278 148.902 77.0461Q151.015 75.8141 153.158 74.6346Q155.301 73.455 157.472 72.3285Q159.643 71.202 161.841 70.1292Q164.04 69.0565 166.264 68.0381Q168.488 67.0198 170.736 66.0564Q172.984 65.0931 175.256 64.1854Q177.527 63.2776 179.82 62.426Q182.113 61.5745 184.426 60.7795Q186.74 59.9846 189.072 59.2468Q191.404 58.5091 193.754 57.8289Q196.103 57.1487 198.469 56.5265Q200.834 55.9043 203.214 55.3405Q205.595 54.7767 207.988 54.2717Q210.381 53.7666 212.786 53.3205Q215.191 52.8745 217.607 52.4877Q220.022 52.101 222.446 51.7738Q224.87 51.4465 227.301 51.179Q229.733 50.9115 232.17 50.7039Q234.607 50.4963 237.049 50.3488Q239.491 50.2012 241.935 50.1137Z"/>
	<path fill="#191771" transform="matrix(4.608 0 0 4.608 0 -3.05176e-05)" d="M243.151 68.6095Q243.78 68.573 244.409 68.5517Q246.637 68.4738 248.867 68.451Q251.096 68.4281 253.325 68.4603Q255.555 68.4925 257.783 68.5797Q260.011 68.6668 262.236 68.809Q264.461 68.9511 266.681 69.1481Q268.902 69.3452 271.118 69.5969Q273.333 69.8487 275.541 70.155Q277.75 70.4614 279.95 70.8222Q282.15 71.1829 284.341 71.5979Q286.531 72.0129 288.711 72.4818Q290.891 72.9507 293.058 73.4732Q295.226 73.9958 297.38 74.5717Q299.534 75.1476 301.673 75.7764Q303.812 76.4053 305.934 77.0868Q308.057 77.7682 310.163 78.5019Q312.268 79.2355 314.355 80.0209Q316.441 80.8063 318.508 81.643Q320.575 82.4796 322.62 83.3671Q324.665 84.2545 326.688 85.1921Q328.711 86.1297 330.71 87.1169Q332.709 88.1042 334.683 89.1405Q336.658 90.1768 338.605 91.2614Q340.553 92.3461 342.474 93.4786Q344.395 94.611 346.286 95.7905Q348.179 96.97 350.041 98.1958Q351.903 99.4217 353.735 100.693Q355.566 101.965 357.366 103.281Q359.165 104.597 360.932 105.957Q362.699 107.317 364.431 108.721Q366.163 110.124 367.861 111.57Q369.558 113.016 371.219 114.503Q372.88 115.99 374.504 117.518Q376.132 119.042 377.722 120.606Q379.313 122.17 380.863 123.773Q382.414 125.376 383.925 127.016Q385.436 128.657 386.905 130.335Q388.375 132.012 389.803 133.726Q391.23 135.44 392.615 137.188Q393.999 138.937 395.34 140.719Q396.681 142.501 397.978 144.316Q399.274 146.131 400.525 147.977Q401.776 149.824 402.981 151.701Q404.186 153.577 405.344 155.484Q406.502 157.39 407.612 159.324Q408.722 161.258 409.785 163.219Q410.847 165.181 411.86 167.167Q412.873 169.154 413.837 171.166Q414.8 173.177 415.714 175.212Q416.628 177.246 417.49 179.303Q418.353 181.36 419.165 183.437Q419.976 185.514 420.736 187.611Q421.496 189.708 422.204 191.823Q422.912 193.938 423.567 196.07Q424.222 198.202 424.824 200.35Q425.426 202.497 425.975 204.659Q426.523 206.821 427.018 208.996Q427.513 211.17 427.954 213.357Q428.395 215.543 428.782 217.739Q429.168 219.936 429.5 222.141Q429.833 224.347 430.11 226.56Q430.387 228.773 430.61 230.992Q430.832 233.211 430.999 235.435Q431.167 237.659 431.279 239.887Q431.391 242.114 431.448 244.344Q431.514 246.558 431.526 248.773Q431.538 250.987 431.495 253.202Q431.452 255.416 431.355 257.629Q431.258 259.841 431.106 262.051Q430.954 264.261 430.748 266.466Q430.542 268.671 430.282 270.87Q430.022 273.07 429.708 275.262Q429.393 277.455 429.025 279.639Q428.657 281.823 428.235 283.997Q427.813 286.171 427.338 288.334Q426.863 290.497 426.335 292.648Q425.806 294.799 425.225 296.936Q424.644 299.074 424.01 301.196Q423.377 303.318 422.691 305.424Q422.006 307.53 421.268 309.619Q420.531 311.707 419.743 313.777Q418.954 315.847 418.115 317.896Q417.276 319.946 416.387 321.974Q415.497 324.003 414.558 326.009Q413.619 328.014 412.631 329.997Q411.643 331.979 410.607 333.936Q409.57 335.893 408.486 337.824Q407.401 339.756 406.269 341.659Q405.138 343.563 403.96 345.439Q402.781 347.314 401.557 349.16Q400.333 351.006 399.064 352.821Q397.795 354.636 396.482 356.419Q395.169 358.203 393.812 359.953Q392.455 361.704 391.055 363.42Q389.656 365.137 388.214 366.819Q386.773 368.5 385.291 370.146Q383.808 371.791 382.286 373.4Q381.028 374.739 379.743 376.052Q378.458 377.365 377.146 378.651Q375.835 379.937 374.497 381.197Q373.16 382.456 371.797 383.688Q370.434 384.919 369.046 386.123Q367.658 387.327 366.246 388.502Q364.834 389.677 363.398 390.823Q361.962 391.969 360.503 393.086Q359.044 394.202 357.563 395.288Q356.081 396.375 354.578 397.431Q353.075 398.487 351.55 399.512Q350.026 400.537 348.481 401.531Q346.935 402.524 345.37 403.486Q343.805 404.448 342.221 405.378Q340.636 406.308 339.033 407.205Q337.43 408.103 335.809 408.967Q334.188 409.831 332.55 410.662Q330.911 411.494 329.256 412.291Q327.601 413.089 325.93 413.852Q324.26 414.616 322.573 415.345Q320.887 416.074 319.186 416.769Q317.486 417.463 315.771 418.123Q314.057 418.783 312.329 419.408Q310.601 420.032 308.861 420.622Q307.121 421.211 305.37 421.764Q303.618 422.318 301.855 422.836Q300.093 423.354 298.32 423.835Q296.547 424.317 294.765 424.762Q292.982 425.208 291.191 425.616Q289.4 426.025 287.601 426.397Q285.802 426.77 283.996 427.105Q282.19 427.441 280.377 427.739C273.08 428.942 265.749 429.843 258.348 430.043Q257.766 430.106 257.181 430.13C211.564 432.374 163.833 414.694 130.119 384.092C92.8964 350.306 72.4786 306.542 70.0441 256.483Q69.9538 254.303 69.9164 252.122Q69.879 249.94 69.8944 247.758Q69.9098 245.577 69.9781 243.396Q70.0464 241.215 70.1675 239.037Q70.2886 236.858 70.4624 234.683Q70.6363 232.508 70.8628 230.338Q71.0892 228.168 71.3682 226.004Q71.6472 223.841 71.9786 221.684Q72.3099 219.528 72.6934 217.38Q73.0769 215.232 73.5123 213.094Q73.9477 210.956 74.4348 208.829Q74.9219 206.703 75.4603 204.588Q75.9988 202.474 76.5883 200.373Q77.1779 198.273 77.8181 196.187Q78.4584 194.101 79.149 192.031Q79.8396 189.962 80.5801 187.909Q81.3206 185.857 82.1107 183.823Q82.9007 181.79 83.7398 179.776Q84.5789 177.762 85.4665 175.769Q86.3542 173.775 87.2898 171.804Q88.2255 169.833 89.2086 167.886Q90.1918 165.938 91.2218 164.015Q92.2519 162.091 93.3282 160.193Q94.4045 158.296 95.5265 156.424Q96.6485 154.553 97.8155 152.71Q98.9826 150.866 100.194 149.052Q101.405 147.237 102.66 145.452Q103.915 143.667 105.213 141.913Q106.511 140.16 107.851 138.438Q109.191 136.716 110.572 135.027Q111.953 133.338 113.375 131.683Q114.797 130.028 116.258 128.408Q117.762 126.733 119.307 125.096Q120.852 123.459 122.438 121.86Q124.023 120.262 125.648 118.704Q127.273 117.146 128.936 115.629Q130.599 114.112 132.299 112.637Q134 111.162 135.737 109.729Q137.473 108.297 139.245 106.908Q141.017 105.52 142.823 104.176Q144.629 102.832 146.468 101.533Q148.306 100.234 150.177 98.982Q152.048 97.7297 153.949 96.5243Q155.85 95.319 157.781 94.1614Q159.712 93.0038 161.671 91.8947Q163.63 90.7856 165.616 89.7257Q167.602 88.6658 169.614 87.6557Q171.625 86.6456 173.662 85.6859Q175.698 84.7263 177.758 83.8177Q179.817 82.9091 181.899 82.0521Q183.981 81.1952 186.083 80.3903Q188.185 79.5855 190.307 78.8334Q192.429 78.0812 194.569 77.3821Q196.709 76.6831 198.865 76.0376Q201.022 75.3921 203.194 74.8006Q205.366 74.209 207.552 73.6718Q209.738 73.1346 211.937 72.652Q214.136 72.1695 216.346 71.7419Q218.556 71.3142 220.776 70.9418Q222.997 70.5695 225.225 70.2525Q227.454 69.9356 229.69 69.6743Q231.926 69.413 234.168 69.2076Q236.409 69.0021 238.656 68.8525Q240.902 68.703 243.151 68.6095Z"/>
	<path fill="#FEFEFE" transform="matrix(4.608 0 0 4.608 0 -3.05176e-05)" d="M259.776 130.607C266.136 129.787 277.185 130.421 283.635 131.47C311.369 135.977 337.305 150.673 353.763 173.741C365.7 190.474 373.164 210.484 373.29 231.138C373.308 234.093 373.56 237.289 373.079 240.206C379.538 247.309 385.567 254.816 391.716 262.185C395.363 266.556 399.548 270.876 402.639 275.657C403.714 277.321 404.229 278.724 404.643 280.642C406.683 281.586 408.93 282.487 410.729 283.863C412.897 285.521 414.346 288.167 414.651 290.87C414.979 293.778 414.003 296.749 412.12 298.975C409.869 301.636 406.772 302.789 403.39 303.04C402.636 306.396 402.736 306.891 400.964 309.773C400.259 310.92 402.292 312.298 402.576 313.565C402.597 313.659 402.612 313.755 402.632 313.849C402.701 314.192 402.774 314.532 402.835 314.877C403.671 319.654 403.998 328.825 401.033 332.879C399.689 334.718 397.701 335.907 395.525 336.5C391.619 337.566 379.711 337.176 375.408 336.899C372.827 336.733 370.053 336.13 367.488 336.552C367.373 336.57 367.258 336.592 367.144 336.612C367.985 337.52 368.881 338.504 369.545 339.551C372.431 344.1 372.569 350.374 371.51 355.504C373.041 357.394 373.807 359.94 374.006 362.352Q374.063 363.02 374.052 363.689Q374.042 364.359 373.965 365.025Q373.888 365.69 373.745 366.345Q373.601 366.999 373.394 367.636Q373.186 368.273 372.916 368.887Q372.646 369.5 372.315 370.083Q371.985 370.666 371.599 371.213Q371.212 371.76 370.773 372.266C368.787 374.53 366.257 375.759 363.303 376.156C359.629 376.651 355.615 375.821 351.916 375.664C347.142 375.462 342.319 375.521 337.54 375.537C330.588 375.56 323.594 375.384 316.649 375.579C313.152 375.677 309.748 376.342 306.227 376.294C304.011 376.264 301.903 375.11 299.738 375.154C296.829 375.213 294.024 376.382 291.002 376.351C288.085 376.321 285.288 375.232 282.399 375.152C279.62 375.076 276.786 375.518 273.993 375.553C266.687 375.644 259.347 375.347 252.049 375.591C249.836 375.665 247.645 376.124 245.438 376.211C242.802 376.314 240.212 375.466 237.557 375.628C237.458 375.634 237.359 375.644 237.26 375.652C235.674 375.922 234.099 376.12 232.49 376.195C228.808 376.368 225.115 375.683 221.43 375.614C212.508 375.447 203.577 375.577 194.652 375.46C188.741 375.381 182.816 375.611 176.902 375.609C174.135 375.608 171.281 375.71 168.534 375.369C166.607 375.131 165.048 374.347 163.639 373.022C162.089 371.565 161.007 369.785 160.568 367.695C159.796 364.021 160.798 359.84 160.817 356.088C160.835 352.43 160.463 348.844 160.323 345.199C160.166 341.119 161.508 338.484 164.204 335.558L161.626 334.256C158.849 335.969 155.887 336.911 152.621 337.025C146.79 337.228 138.281 338.115 133.737 333.62C130.214 330.136 130.962 324.613 130.98 320.074C129.48 318.58 127.985 316.956 126.946 315.101C125.66 312.806 125.398 310.539 126.156 308.016C126.879 305.606 128.649 302.663 130.948 301.484C130.908 298.399 131.209 295.63 132.613 292.833C132.984 292.094 133.808 291.075 133.632 290.296C132.412 289.892 131.547 289.413 130.566 288.576Q129.646 287.798 128.859 286.885Q128.072 285.972 127.437 284.948C125.499 281.841 123.808 278.522 122.01 275.326L108.579 251.298L90.3789 219.155C88.6035 215.958 86.4941 212.83 84.8382 209.59Q84.2186 208.374 83.8609 207.057Q83.5031 205.74 83.4222 204.378C83.2071 200.972 84.127 197.693 86.4843 195.154Q86.7975 194.813 87.1377 194.5Q87.478 194.187 87.843 193.902Q88.208 193.618 88.5953 193.365Q88.9826 193.112 89.3895 192.892Q89.7965 192.672 90.2202 192.486Q90.6439 192.3 91.0816 192.15Q91.5192 192 91.9678 191.887Q92.4163 191.774 92.8727 191.698C96.7126 191.04 100.875 191.565 104.769 191.48C107.778 191.415 110.774 190.933 113.786 190.814C118.072 190.646 122.372 190.829 126.66 190.721C134.937 190.515 143.234 189.955 151.505 189.601C154.928 189.454 158.365 189.617 161.785 189.445C164.547 189.306 167.254 188.656 170.015 188.551C172.775 181.515 178.374 173.51 183.474 167.854C188.493 162.286 193.953 156.778 199.885 152.173C209.342 144.834 220.978 138.867 232.388 135.309C235.46 134.351 238.656 133.7 241.792 132.982C244.574 132.346 247.376 131.632 250.206 131.247C253.348 130.819 256.609 130.762 259.776 130.607Z"/>
	<path fill="#FD6D00" transform="matrix(4.608 0 0 4.608 0 -3.05176e-05)" d="M138.593 309.371C138.69 309.391 138.789 309.403 138.885 309.43C139.722 309.663 140.707 310.913 141.075 311.682C141.317 312.188 141.295 312.253 141.096 312.737L140.438 312.827C139.678 312.594 138.818 312.324 138.106 311.966C137.523 311.673 137.36 311.408 137.182 310.808C137.446 310.032 137.94 309.79 138.593 309.371Z"/>
	<path transform="matrix(4.608 0 0 4.608 0 -3.05176e-05)" d="M212.869 350.583C213.284 350.75 213.262 350.807 213.509 351.152C213.597 352.918 214.077 356.991 213.218 358.463L212.667 358.4C212.451 357.403 211.999 356.634 211.693 355.688C211.387 354.744 211.515 354.013 211.947 353.137C212.361 352.295 212.609 351.482 212.869 350.583Z"/>
	<path fill="#FD6D00" transform="matrix(4.608 0 0 4.608 0 -3.05176e-05)" d="M172.738 297.544C173.177 297.654 173.386 297.759 173.765 297.988C174.835 299.787 174.477 302.508 174.025 304.477C173.494 304.655 173.372 304.712 172.831 304.603C171.79 303.031 172.431 299.347 172.738 297.544Z"/>
	<path transform="matrix(4.608 0 0 4.608 0 -3.05176e-05)" d="M215.358 359.615C216.197 360.362 215.781 364.123 215.917 365.469L211.552 365.422L211.157 365.197L211.254 364.761C211.935 364.225 212.544 363.655 213.136 363.023L213.426 362.71C214.298 361.777 214.794 360.746 215.358 359.615Z"/>
	<path transform="matrix(4.608 0 0 4.608 0 -3.05176e-05)" d="M182.636 359.623L183.008 359.89C183.536 361.274 183.082 363.612 183.211 365.184L183.238 365.477L178.99 365.373L178.528 365.284L178.471 364.924C180.206 363.245 181.568 361.827 182.636 359.623Z"/>
	<path transform="matrix(4.608 0 0 4.608 0 -3.05176e-05)" d="M180.199 350.34L180.681 350.785C181.208 353.047 181.375 356.841 180.574 359.033L180.214 359.145L179.936 358.886C179.565 357.056 178.97 356.146 177.776 354.773C179.021 353.315 179.609 352.137 180.199 350.34Z"/>
	<path transform="matrix(4.608 0 0 4.608 0 -3.05176e-05)" d="M293.115 343.918C294.088 343.942 294.845 344.709 295.76 344.745C296.159 344.761 297.209 344.271 297.687 344.158L297.983 344.5C297.858 346.388 297.887 348.295 297.871 350.187C297.689 350.757 297.859 350.525 297.345 350.869L296.902 350.575C296.251 346.82 294.315 346.819 293.115 343.918Z"/>
	<path transform="matrix(4.608 0 0 4.608 0 -3.05176e-05)" d="M210.926 344.304C212.543 344.226 214.177 344.253 215.797 344.234Q215.738 347.305 215.848 350.375C215.751 350.33 215.647 350.298 215.558 350.24C214.901 349.815 214.674 348.977 214.229 348.355C213.342 347.114 211.305 345.654 210.926 344.304Z"/>
	<path transform="matrix(4.608 0 0 4.608 0 -3.05176e-05)" d="M178.266 344.299C179.892 344.2 181.548 344.243 183.179 344.228C182.968 346.203 183.071 348.177 183.234 350.15L182.537 349.832C181.681 348.554 178.515 345.26 178.266 344.299Z"/>
	<path transform="matrix(4.608 0 0 4.608 0 -3.05176e-05)" d="M196.255 344.304C198.008 344.194 199.749 344.28 201.503 344.351L199.453 346.854C199.133 348.75 199.109 350.602 199.103 352.519C199.207 353.405 199.229 353.845 198.807 354.643L198.529 354.43C197.725 352.064 197.978 349.147 197.967 346.663C197.232 345.903 196.633 345.313 196.255 344.304Z"/>
	<path transform="matrix(4.608 0 0 4.608 0 -3.05176e-05)" d="M286.04 358.058C286.466 358.2 286.697 358.258 286.927 358.697C287.961 360.666 288.354 362.428 289.978 364.149C290.709 364.924 291.118 365.233 291.104 366.344C290.079 365.98 289.181 365.362 288.258 364.795L286.403 365.415L286.158 365.173C285.844 362.859 286.025 360.393 286.04 358.058Z"/>
	<path transform="matrix(4.608 0 0 4.608 0 -3.05176e-05)" d="M243.831 343.744C244.902 343.975 245.912 344.446 246.983 344.669C248.163 344.915 248.915 344.213 249.826 343.583C249.595 346.051 249.662 348.519 249.747 350.992L249.359 351.594L248.969 351.553C248.293 350.659 248.399 349.37 247.878 348.392C246.901 346.562 244.351 345.609 243.831 343.744Z"/>
	<path fill="#0194EE" transform="matrix(4.608 0 0 4.608 0 -3.05176e-05)" d="M173.546 312.059L174.137 312.286C174.83 313.252 174.525 317.007 174.491 318.272C174.447 319.941 174.617 321.879 173.33 323.103L172.708 322.568C172.136 320.978 172.26 318.782 172.294 317.108C172.331 315.249 172.141 313.397 173.546 312.059Z"/>
	<path fill="#FD6D00" transform="matrix(4.608 0 0 4.608 0 -3.05176e-05)" d="M163.172 296.245L163.567 296.623C163.144 298.214 162.149 299.632 161.641 301.201C160.942 303.359 161.225 307.82 159.974 309.398L159.286 308.602C158.997 307.53 160.189 298.49 160.735 297.394C161.459 296.763 162.273 296.545 163.172 296.245Z"/>
	<path transform="matrix(4.608 0 0 4.608 0 -3.05176e-05)" d="M187.371 351.313L188.079 351.786C189.107 354.188 188.455 360.108 188.464 362.974C188.945 363.617 189.762 364.409 189.813 365.198C189.075 365.611 188.253 365.472 187.438 365.44Q187.102 365.44 186.766 365.431C186.131 365.41 185.841 365.436 185.398 364.97C185.719 364.29 186.353 363.927 186.942 363.494C187.491 359.451 187.03 355.367 187.371 351.313Z"/>
	<path transform="matrix(4.608 0 0 4.608 0 -3.05176e-05)" d="M266.809 349.197C266.861 349.246 266.921 349.288 266.965 349.345C268.316 351.052 265.311 360.493 264.932 363.056L264.874 363.459C265.485 363.954 266.327 364.457 266.547 365.219C265.802 365.599 264.998 365.467 264.188 365.433C263.487 365.463 262.771 365.606 262.169 365.18C262.382 364.404 262.934 364.058 263.506 363.504C264.791 358.824 265.732 353.94 266.809 349.197Z"/>
	<path transform="matrix(4.608 0 0 4.608 0 -3.05176e-05)" d="M388.836 303.584C389.113 303.744 389.337 303.795 389.474 304.104C390.137 305.6 390.044 313.843 389.515 315.504C389.349 316.022 389.471 315.836 388.973 316.117C388.371 315.751 388.333 315.524 388.031 314.903C387.451 313.391 386.358 312.216 385.809 310.711C385.09 308.74 387.102 307.272 387.878 305.587C388.188 304.915 388.516 304.251 388.836 303.584Z"/>
	<path transform="matrix(4.608 0 0 4.608 0 -3.05176e-05)" d="M349.716 293.962C350.79 293.962 352.098 293.838 353.141 294.073C353.825 294.227 354.088 294.517 354.445 295.079C354.438 295.866 352.176 301.341 351.775 302.879C351.601 303.79 351.456 304.477 350.956 305.266C350.85 305.319 350.335 305.273 350.206 305.269C349.101 302.146 349.698 297.323 349.716 293.962Z"/>
	<path transform="matrix(4.608 0 0 4.608 0 -3.05176e-05)" d="M365.991 293.999L371.23 293.971C371.189 297.506 371.39 301.161 370.947 304.668C370.284 304.743 369.857 304.808 369.23 304.507C368.59 303.35 368.755 301.802 368.403 300.526C367.684 297.917 366.076 297.005 365.991 293.999Z"/>
	<path transform="matrix(4.608 0 0 4.608 0 -3.05176e-05)" d="M151.294 293.711C153.063 293.994 154.559 294.708 156.121 295.54C156.933 294.838 157.705 294.082 158.49 293.351Q158.568 298.532 158.478 303.712C158.313 304.081 158.164 304.241 157.891 304.53C157.379 304.506 157.309 304.472 157.025 304.015C156.081 302.49 156.082 300.277 154.989 298.77C154.149 297.613 152.716 296.813 151.758 295.733C151.223 295.13 151.255 294.465 151.294 293.711Z"/>
	<path transform="matrix(4.608 0 0 4.608 0 -3.05176e-05)" d="M335.133 349.193C335.18 349.236 335.234 349.274 335.274 349.323C336.245 350.5 333.657 361.09 333.292 363.134C333.852 363.996 334.618 364.738 335.314 365.492C331.78 365.476 328.164 365.633 324.646 365.309C325.349 364.709 326.093 364.157 326.824 363.591C327.935 362.143 328.446 360.371 329.076 358.677L329.572 358.571C330.32 359.594 329.847 361.666 329.965 362.917C330.024 363.535 330.058 363.956 330.53 364.389C330.603 364.358 330.681 364.337 330.749 364.295C333.039 362.882 334.175 352.323 335.066 349.403C335.088 349.333 335.11 349.263 335.133 349.193Z"/>
	<path transform="matrix(4.608 0 0 4.608 0 -3.05176e-05)" d="M205.339 315.352L205.814 315.642C206.768 318.32 206.257 323.653 206.259 326.672C204.191 326.744 202.111 326.705 200.042 326.708L199.418 326.399C199.293 325.823 199.316 325.226 199.675 324.704C200.223 323.906 201.541 323.324 202.25 322.623C203.869 321.023 204.635 317.521 205.339 315.352Z"/>
	<path transform="matrix(4.608 0 0 4.608 0 -3.05176e-05)" d="M141.389 314.803C141.534 314.86 141.686 314.902 141.824 314.975C142.849 315.519 143.824 320.01 144.444 321.249C145.308 322.974 147.916 324.198 148.491 325.984C148.604 326.334 148.427 326.444 148.258 326.731L147.445 326.914C146.115 326.532 144.971 326.037 143.74 325.41L141.17 327.133C141.361 323.05 140.863 318.864 141.389 314.803Z"/>
	<path transform="matrix(4.608 0 0 4.608 0 -3.05176e-05)" d="M392.662 316.66C392.752 316.723 392.851 316.775 392.933 316.849C393.723 317.576 393.277 325.225 393.264 326.737Q389.655 326.733 386.047 326.676L385.736 326.469C385.665 326.212 385.613 326.071 385.599 325.788C385.504 323.853 388.489 323.53 389.564 322.246C390.944 320.597 391.086 318.319 392.662 316.66Z"/>
	<path transform="matrix(4.608 0 0 4.608 0 -3.05176e-05)" d="M385.718 294.018L393.178 293.992Q393.227 298.951 393.11 303.908C389.968 303.029 390.855 298.836 387.804 297.291C387.155 296.963 386.604 296.652 386.018 296.223C385.566 295.567 385.7 294.78 385.718 294.018Z"/>
	<path transform="matrix(4.608 0 0 4.608 0 -3.05176e-05)" d="M341.527 294.042C343.162 293.988 344.99 293.861 346.604 294.09C347.156 294.169 347.314 294.144 347.668 294.595C347.366 296.376 345.363 297.421 345.122 299.244C345.106 299.364 345.098 299.486 345.084 299.606C344.721 302.855 344.942 306.29 344.977 309.563C345.013 309.903 344.963 310.241 344.937 310.582L344.711 310.709C342.257 308.843 343.306 303.098 343.082 300.41C342.869 297.86 340.789 296.898 340.517 294.98C340.776 294.368 340.936 294.37 341.527 294.042Z"/>
	<path fill="#FD6D00" transform="matrix(4.608 0 0 4.608 0 -3.05176e-05)" d="M344.429 262.03C346.838 262.216 349.32 262.052 351.737 262.008L351.728 268.986C349.291 269.101 346.84 269.084 344.4 269.114C344.293 266.762 344.398 264.384 344.429 262.03Z"/>
	<path transform="matrix(4.608 0 0 4.608 0 -3.05176e-05)" d="M244.182 355.116C246.166 355.019 248.173 355.063 250.16 355.048C249.43 357.858 249.526 360.585 249.52 363.463C248.58 364.174 247.499 364.755 246.494 365.372C245.67 365.768 244.643 366.375 243.742 366.122C243.522 365.07 244.523 364.157 244.699 363.13C245.018 361.277 244.789 359.078 244.753 357.187C244.18 356.743 243.688 356.376 243.289 355.755L243.456 355.38L244.182 355.116Z"/>
	<path fill="#FD6D00" transform="matrix(4.608 0 0 4.608 0 -3.05176e-05)" d="M334.706 262.256C337.199 262.325 339.707 262.252 342.201 262.236C342.225 264.65 342.28 267.068 342.199 269.482C339.731 269.726 337.186 269.631 334.705 269.653L334.706 262.256Z"/>
	<path transform="matrix(4.608 0 0 4.608 0 -3.05176e-05)" d="M306.326 301.195C308.247 303.467 303.924 318.968 303.954 323.114L304.197 323.362C305.034 324.221 305.658 324.747 305.643 325.993C304.491 327.102 302.268 326.742 300.756 326.731C300.016 326.543 299.342 326.529 298.892 325.894C299.429 324.063 301.437 322.981 301.977 321.072C303.12 317.039 303.939 312.798 304.721 308.676C305.178 306.266 305.429 303.461 306.326 301.195Z"/>
	<path fill="#FD6D00" transform="matrix(4.608 0 0 4.608 0 -3.05176e-05)" d="M344.383 251.722Q348.061 251.694 351.739 251.774Q351.695 255.537 351.821 259.298L344.301 259.315Q344.244 255.517 344.383 251.722Z"/>
	<path transform="matrix(4.608 0 0 4.608 0 -3.05176e-05)" d="M241.674 300.865L241.946 300.996C244.103 303.727 238.821 317.351 238.982 321.387C239.028 322.53 239.3 323.409 240.165 324.184C240.753 324.712 241.286 325.121 241.382 325.943C240.415 326.925 238.907 326.726 237.615 326.739C236.474 326.758 235.191 326.828 234.155 326.311C233.603 324.579 236.483 323.324 237.084 321.591C237.873 319.312 238.136 316.772 238.638 314.414C239.602 309.889 240.692 305.388 241.674 300.865Z"/>
	<path transform="matrix(4.608 0 0 4.608 0 -3.05176e-05)" d="M327.047 303.635C327.336 303.792 327.498 303.875 327.73 304.141C330.021 306.768 328.152 316.881 328.73 320.153C329.091 322.198 331.435 324.281 331.255 326.18C330.64 326.657 330.075 326.618 329.312 326.723C327.85 326.75 325.692 327.009 324.399 326.272C324.06 324.504 326.704 323.302 326.941 321.295C327.183 319.248 327.034 317.065 327.023 315.003Q326.946 309.319 327.047 303.635Z"/>
	<path fill="#FD6D00" transform="matrix(4.608 0 0 4.608 0 -3.05176e-05)" d="M334.704 251.723L342.23 251.75C342.178 254.258 342.234 256.778 342.241 259.286L334.709 259.315L334.704 251.723Z"/>
	<path transform="matrix(4.608 0 0 4.608 0 -3.05176e-05)" d="M242.199 343.724C242.576 344.056 242.486 344.034 242.54 344.499C240.679 347.807 241.522 360.971 241.772 365.191L241.401 365.479C240.078 365.463 239.299 364.622 238.379 363.784C237.926 363.127 237.548 362.46 237.195 361.745C235.365 358.04 235.103 353.936 236.465 350.03C237.555 346.902 239.278 345.123 242.199 343.724Z"/>
	<path transform="matrix(4.608 0 0 4.608 0 -3.05176e-05)" d="M306.698 343.718L307.188 343.768L307.321 344.111C307.14 344.495 306.97 344.888 306.775 345.266C306.485 345.829 306.135 346.357 306.022 346.993C305.485 350.001 305.992 360.017 306.064 363.586C306.61 364.28 307.073 364.824 307.292 365.691L307.039 366.008C306.003 365.977 305.152 365.447 304.242 364.995C303.146 364.09 302.412 363.217 301.765 361.944C299.926 358.328 299.721 353.491 301.031 349.661C302.063 346.647 303.935 345.064 306.698 343.718Z"/>
	<path transform="matrix(4.608 0 0 4.608 0 -3.05176e-05)" d="M308.46 343.682C309.789 343.946 310.903 344.482 311.945 345.356C314.169 347.222 315.212 350.096 315.498 352.917C315.935 357.232 315.095 360.976 312.308 364.352C312.124 364.521 312.085 364.563 311.857 364.733C310.937 365.418 309.699 366.37 308.523 366.215C308.859 364.773 309.453 363.195 309.568 361.73C309.794 358.851 310.021 347.321 309.03 345.26C308.835 344.854 308.662 344.517 308.552 344.075C308.52 343.945 308.49 343.813 308.46 343.682Z"/>
	<path transform="matrix(4.608 0 0 4.608 0 -3.05176e-05)" d="M354.999 344.269Q355.482 344.241 355.965 344.237C357.577 344.233 359.321 344.513 360.465 345.756C361.978 347.402 361.794 349.649 361.719 351.711C360.649 353.067 359.602 354.343 358.327 355.512C364.076 357.48 360.403 359.571 362.056 362.755C362.715 362.963 363.026 362.718 363.658 362.497L363.966 362.704L363.889 363.376C363.431 364.089 362.898 364.851 362.213 365.362C361.386 365.98 360.103 366.35 359.077 366.125C355.601 365.362 357.207 360.111 356.661 357.758C356.488 357.014 355.641 356.173 355.231 355.489C355.435 354.729 355.979 354.429 356.555 353.908C356.729 351.548 356.709 349.21 356.572 346.849C355.98 346.008 355.447 345.197 354.999 344.269Z"/>
	<path transform="matrix(4.608 0 0 4.608 0 -3.05176e-05)" d="M225.966 344.248C226.951 344.232 228.032 344.204 228.992 344.448C230.915 344.936 231.787 346.22 232.72 347.843C232.766 349.022 232.713 350.211 232.692 351.39C231.664 352.966 230.417 354.153 229.076 355.465C229.714 355.697 230.376 355.928 230.971 356.257C233.365 357.583 232.558 360.733 233.119 362.902C233.828 363.173 233.981 362.344 234.845 362.554L234.889 363.096C234.249 364.108 233.52 365.286 232.442 365.886C231.701 366.299 230.844 366.32 230.045 366.077C226.426 364.975 227.935 360.041 227.438 357.357C227.315 356.689 226.671 355.978 226.338 355.368C226.429 354.637 226.944 354.254 227.44 353.762C227.519 351.463 227.479 349.174 227.436 346.875C226.844 346.02 226.38 345.203 225.966 344.248Z"/>
	<path transform="matrix(4.608 0 0 4.608 0 -3.05176e-05)" d="M203.069 344.313C205.19 344.145 207.38 344.245 209.51 344.237C209.485 346.837 210.009 364.414 209.218 365.419L208.312 365.456L202.43 365.47C203.119 364.771 203.743 364.049 204.356 363.283C204.597 358.908 204.902 350.194 204.086 346.08C203.723 345.635 203.362 345.219 203.178 344.666C203.14 344.549 203.106 344.431 203.069 344.313Z"/>
	<path transform="matrix(4.608 0 0 4.608 0 -3.05176e-05)" d="M317.142 344.283L317.605 344.266C319.426 344.196 323.664 343.539 325.013 344.787C324.821 345.632 324.414 345.85 323.796 346.439L323.749 365.469L316.522 365.452C317.125 364.794 317.829 364.279 318.533 363.735C318.566 359.441 319.19 350.283 318.279 346.431C318.094 345.646 317.582 344.945 317.142 344.283Z"/>
	<path transform="matrix(4.608 0 0 4.608 0 -3.05176e-05)" d="M218.449 344.268L224.788 344.223C224.779 348.669 224.226 360.398 225.239 363.976C225.781 364.315 226.201 364.555 226.542 365.12L226.295 365.436L225.312 365.447C223.889 365.469 219.122 365.918 218.156 365.163L218.207 364.684C218.52 364.44 218.988 364.125 219.176 363.76C220.008 362.143 219.569 347.487 218.943 345.726C218.771 345.242 218.614 344.754 218.449 344.268Z"/>
	<path transform="matrix(4.608 0 0 4.608 0 -3.05176e-05)" d="M170.147 344.261L176.786 344.218L176.838 357.828C176.845 360.252 177.056 362.934 176.699 365.328L176.265 365.478C174.398 365.492 172.259 365.717 170.439 365.324C170.535 365.039 170.621 364.741 170.734 364.463C170.886 364.09 171.066 363.741 171.184 363.354C171.657 361.803 171.473 348.543 171.134 346.547C170.996 345.738 170.54 344.972 170.147 344.261Z"/>
	<path transform="matrix(4.608 0 0 4.608 0 -3.05176e-05)" d="M347.458 344.278C349.616 344.216 351.782 344.24 353.941 344.226L353.992 363.728C354.684 364.13 355.274 364.441 355.763 365.098L355.596 365.385L354.812 365.451C353.109 365.445 348.651 366.115 347.368 365.096C347.522 364.394 347.962 364.247 348.512 363.821C348.491 359.561 349.1 350.223 348.346 346.532C348.187 345.754 347.797 344.992 347.458 344.278Z"/>
	<path transform="matrix(4.608 0 0 4.608 0 -3.05176e-05)" d="M252.41 344.305C255.073 344.118 257.816 344.241 260.489 344.243C259.881 345.264 259.566 346.018 259.407 347.197C259.045 349.88 259.015 359.796 259.285 362.502C259.349 363.146 259.595 363.984 260.034 364.47C260.25 364.708 260.446 364.903 260.641 365.166L260.431 365.453C257.662 365.342 254.836 365.469 252.062 365.487L253.709 363.597C253.863 360.755 254.588 347.004 253.14 345.409C252.864 345.105 252.725 344.982 252.532 344.593C252.486 344.5 252.451 344.401 252.41 344.305Z"/>
	<path transform="matrix(4.608 0 0 4.608 0 -3.05176e-05)" d="M335.973 344.257L341.397 344.226C341.599 348.214 343.86 362.603 345.791 365.476L341.456 365.486L338.042 365.414C338.274 364.946 338.492 364.476 338.661 363.981C340.368 358.96 336.552 361.696 335.082 358.99C336.223 358.796 337.249 358.772 338.405 358.832C337.274 354.148 336.419 349.054 335.973 344.257Z"/>
	<path transform="matrix(4.608 0 0 4.608 0 -3.05176e-05)" d="M291.04 343.724L291.628 343.787L291.788 344.177Q291.489 344.751 291.199 345.329C290.843 346.023 290.465 346.693 290.319 347.469C289.689 350.81 295.951 352.257 297.577 354.715C298.658 356.35 298.836 358.976 298.377 360.858C297.785 363.282 295.738 364.705 293.694 365.86C293.47 365.823 293.187 365.684 292.972 365.602C292.757 364.691 293.908 363.645 294.193 362.692C295.291 359.018 288.18 357.388 286.678 354.377C285.746 352.508 285.816 349.51 286.584 347.59C287.408 345.532 289.13 344.581 291.04 343.724Z"/>
	<path transform="matrix(4.608 0 0 4.608 0 -3.05176e-05)" d="M267.608 344.262L272.506 344.184C273.282 347.234 274.054 350.296 274.603 353.397C275.217 356.862 275.635 360.363 276.492 363.779L278.079 365.506L274.812 365.471C273.342 365.505 271.827 365.638 270.38 365.341C269.932 364.688 270.196 364.168 270.333 363.398C270.552 362.168 270.362 361.21 270.134 359.999C269.162 360.029 268.248 360.093 267.3 359.822L267.058 359.379L267.407 358.852C268.171 358.592 268.415 358.737 269.181 358.931L269.558 358.653C270.125 355.407 267.727 348.291 267.608 344.262Z"/>
	<path transform="matrix(4.608 0 0 4.608 0 -3.05176e-05)" d="M185.631 344.309C187.905 344.195 190.2 344.241 192.477 344.225C194.318 349.318 198.11 354.315 198.992 359.651C199.308 361.567 199.244 363.547 199.258 365.484C198.075 365.5 196.89 365.441 195.707 365.401C193.181 360.934 191.434 355.71 189.225 351.049C188.227 348.943 186.307 346.295 185.631 344.309Z"/>
	<path fill="#0194EE" transform="matrix(4.608 0 0 4.608 0 -3.05176e-05)" d="M205.878 296.464L206.49 296.547C207.339 297.13 207.801 297.984 208.352 298.834C208.662 303.975 208.378 309.206 208.438 314.362C207.359 313.926 205.892 313.233 204.724 313.704C203.22 314.312 202.39 318.03 201.768 319.529C201.104 320.473 200.347 321.349 199.614 322.239C199.107 314.672 199.39 306.735 199.54 299.146L205.878 296.464Z"/>
	<path fill="#FD6D00" transform="matrix(4.608 0 0 4.608 0 -3.05176e-05)" d="M205.662 238.94C210.266 239.146 214.952 238.961 219.565 238.958C219.74 243.623 219.66 248.324 219.555 252.991Q212.591 252.733 205.627 252.963L205.662 238.94Z"/>
	<path fill="#FD6D00" transform="matrix(4.608 0 0 4.608 0 -3.05176e-05)" d="M223.478 238.941C228.106 239.109 232.784 238.944 237.416 238.92C237.484 243.596 237.456 248.277 237.467 252.954Q230.462 252.76 223.455 252.904Q223.413 245.922 223.478 238.941Z"/>
	<path fill="#FD6D00" transform="matrix(4.608 0 0 4.608 0 -3.05176e-05)" d="M205.671 257.485C210.313 257.573 214.97 257.493 219.614 257.491C219.707 262.204 219.657 266.937 219.628 271.651C217.398 272.199 208.69 271.724 205.691 271.773Q205.61 264.629 205.671 257.485Z"/>
	<path fill="#FD6D00" transform="matrix(4.608 0 0 4.608 0 -3.05176e-05)" d="M223.476 257.481C228.122 257.6 232.802 257.515 237.448 257.456L237.439 271.783C232.79 271.632 228.11 271.739 223.457 271.735L223.476 257.481Z"/>
	<path transform="matrix(4.608 0 0 4.608 0 -3.05176e-05)" d="M271.516 293.804C273.631 294.089 275.471 294.887 277.1 296.274C280.465 299.136 281.931 303.992 282.237 308.255C282.662 314.165 281.32 319.392 277.431 323.912C276.26 325.068 275.013 326.375 273.309 326.657C272.643 326.768 272.383 326.693 271.851 326.307C271.751 325.999 271.705 325.916 271.689 325.563C271.64 324.482 273.072 323.072 273.676 322.283C273.78 317.732 273.734 313.167 273.748 308.614C273.757 305.713 273.938 302.684 273.628 299.802C273.326 297 271.512 297.011 271.516 293.804Z"/>
	<path transform="matrix(4.608 0 0 4.608 0 -3.05176e-05)" d="M172.095 293.548L172.289 293.606C172.52 293.939 172.653 294.006 172.643 294.441C172.615 295.671 171.867 296.47 171.086 297.34C170.57 302.034 170.791 306.885 170.779 311.606C170.769 315.472 170.413 319.761 171.104 323.563C171.96 324.503 172.577 325.282 172.719 326.575C172.496 326.917 172.523 327.083 172.078 327.139C170.364 327.354 168.646 325.914 167.421 324.871C164.958 322.545 163.611 319.951 162.781 316.689C161.403 311.276 161.791 303.957 164.72 299.082C166.504 296.114 168.742 294.374 172.095 293.548Z"/>
	<path transform="matrix(4.608 0 0 4.608 0 -3.05176e-05)" d="M174.577 293.444C176.4 293.755 177.78 294.302 179.243 295.448C182.958 298.358 184.403 303.366 184.84 307.879C185.381 313.461 184.275 319.603 180.662 324.006C179.443 325.31 177.755 326.594 175.964 326.965C175.326 327.098 175.074 326.985 174.575 326.609C174.493 326.086 176.049 321.967 176.053 319.874C176.067 312.977 176.379 305.88 175.945 299.006C175.817 296.964 174.493 295.532 174.577 293.444Z"/>
	<path transform="matrix(4.608 0 0 4.608 0 -3.05176e-05)" d="M219.955 293.982C222.904 293.934 225.55 294.147 227.833 296.262C229.446 297.756 230.323 299.816 230.357 302.006C230.436 307.168 227.754 307.801 224.723 310.879L224.876 311.186C226.335 311.432 227.549 311.746 228.614 312.836C230.874 315.149 230.154 319.648 230.058 322.617C230.854 322.167 231.699 321.462 232.606 321.458L232.989 322.051C232.654 323.143 232.23 324.608 231.543 325.534C230.931 326.357 230.02 326.755 229.02 326.86C227.345 327.036 225.294 326.949 223.981 325.755C221.422 323.427 222.244 317.223 222.124 314.053C221.728 313.426 221.19 312.896 220.713 312.33C220.117 311.624 219.899 311.249 219.979 310.313C220.511 309.501 221.288 309.235 222.143 308.831Q222.291 303.654 222.183 298.475C220.805 296.771 219.994 296.301 219.955 293.982Z"/>
	<path fill="#0194EE" transform="matrix(4.608 0 0 4.608 0 -3.05176e-05)" d="M186.981 304.844L187.611 305.337C188.52 308.626 187.762 318.024 187.707 321.837C186.891 322.977 185.796 324.454 185.806 325.914C185.811 326.657 186.144 327.316 186.662 327.835C187.298 328.472 187.959 328.552 188.814 328.665C191.792 329.06 195.053 328.821 198.057 328.812Q206.638 328.835 215.216 328.636C211.881 331.517 208.325 334.213 204.914 337.012L202.719 338.939C193.863 336.341 185.555 332.082 176.716 329.397C184.039 324.81 186.637 319.503 186.53 310.804C186.507 308.945 186.164 306.561 186.981 304.844Z"/>
	<path transform="matrix(4.608 0 0 4.608 0 -3.05176e-05)" d="M374.709 294.097C377.631 293.919 380.613 294.006 383.542 293.99C383.354 304.879 383.517 315.806 383.545 326.698L381.013 326.735C379.316 326.764 375.715 327.249 374.314 326.328C373.957 326.094 374.013 325.892 373.925 325.509C374.196 324.613 374.914 323.987 375.542 323.323C375.777 315.962 375.677 308.5 375.6 301.133C375.584 299.573 375.605 297.468 374.411 296.333C374.012 295.954 373.858 295.794 373.743 295.226C374.028 294.512 374.051 294.498 374.709 294.097Z"/>
	<path transform="matrix(4.608 0 0 4.608 0 -3.05176e-05)" d="M211.789 294.115C214.009 294.121 216.237 294.169 218.453 294.03L218.508 323.622C219.016 323.907 219.577 324.187 220.039 324.542C220.518 324.91 220.638 325.25 220.716 325.821C219.591 326.956 217.764 326.71 216.264 326.729C214.352 326.755 210.3 327.249 208.785 326.155C208.46 325.921 208.516 325.71 208.448 325.347C208.778 324.431 209.412 324.071 210.181 323.518C210.647 319.317 210.362 314.921 210.366 310.688C210.371 306.329 210.667 301.753 210.19 297.423C209.709 296.878 208.98 296.24 208.681 295.582C208.452 295.076 208.553 294.971 208.768 294.51C209.687 294.008 210.767 294.126 211.789 294.115Z"/>
	<path transform="matrix(4.608 0 0 4.608 0 -3.05176e-05)" d="M356.249 293.968C358.981 294.086 361.754 293.997 364.49 293.991C364.477 303.832 364.303 313.701 364.541 323.539C365.115 323.941 365.831 324.368 366.283 324.899C366.634 325.313 366.629 325.413 366.575 325.916C365.945 326.499 365.368 326.556 364.557 326.696C361.901 326.745 359.058 326.98 356.422 326.698C355.455 326.594 354.65 326.466 354.028 325.689L354.145 325.111C354.747 324.339 355.367 324.059 356.243 323.65L356.249 293.968Z"/>
	<path transform="matrix(4.608 0 0 4.608 0 -3.05176e-05)" d="M188.847 294.085C191.034 294.026 197.083 293.386 198.896 294.314C199.526 294.637 199.539 294.742 199.72 295.378C199.427 296.325 198.5 296.867 197.75 297.457C197.659 301.242 198.085 325.252 197.541 326.553L197.028 326.645C194.778 326.707 189.838 327.379 187.981 326.268C187.638 326.063 187.695 325.858 187.615 325.501C187.959 324.626 188.719 324.268 189.473 323.78Q189.574 310.449 189.453 297.119C188.6 296.559 187.732 296.083 187.49 295.046C187.942 294.434 188.167 294.382 188.847 294.085Z"/>
	<path transform="matrix(4.608 0 0 4.608 0 -3.05176e-05)" d="M269.524 293.96L269.755 294.249C269.725 294.344 269.672 294.434 269.665 294.533C269.615 295.17 269.68 295.663 269.546 296.334L269.489 296.608L269.996 296.76C269.287 299.07 269.767 322.41 269.769 326.728C267.264 326.762 262.09 327.291 259.922 326.309C259.533 326.133 259.543 325.823 259.403 325.449L261.407 323.54C261.381 314.757 261.628 305.92 261.329 297.145C260.73 296.685 260.24 296.289 259.794 295.676C259.728 295.032 259.707 295.037 260.071 294.505C262.457 293.318 266.811 293.988 269.524 293.96Z"/>
	<path transform="matrix(4.608 0 0 4.608 0 -3.05176e-05)" d="M147.382 293.77C147.866 293.751 148.3 293.782 148.782 293.819L149.092 294.208C149.174 295.426 147.829 297.016 147.364 298.197C144.989 304.215 156.254 304.944 158.966 311.849C160.112 314.768 159.654 318.965 158.293 321.753C157.233 323.926 155.524 325.882 153.219 326.724C152.774 326.764 152.289 326.839 151.844 326.818C151.161 326.788 151.084 326.729 150.634 326.271C150.683 324.993 152.603 323.43 153.093 322.107C155.27 316.224 144.278 315.513 141.861 309.308C140.779 306.529 140.729 301.364 141.944 298.661C143.047 296.205 144.946 294.732 147.382 293.77Z"/>
	<path transform="matrix(4.608 0 0 4.608 0 -3.05176e-05)" d="M285.766 294.083C288.699 293.87 293.903 293.493 296.665 294.309L296.71 294.931C296.317 295.949 295.623 296.617 294.895 297.403C294.657 301.171 294.805 305.051 294.805 308.83C294.805 313.778 294.705 318.751 294.96 323.693C295.864 324.275 296.677 324.796 296.965 325.866C296.552 326.506 296.348 326.461 295.64 326.682C293.383 326.736 287.481 327.358 285.617 326.387C285.116 326.126 285.123 326.006 284.971 325.498C285.258 324.616 285.98 324.185 286.68 323.635C286.587 314.801 286.794 305.952 286.57 297.121C285.893 296.561 285.078 296.138 284.782 295.274C285.036 294.58 285.164 294.531 285.766 294.083Z"/>
	<path transform="matrix(4.608 0 0 4.608 0 -3.05176e-05)" d="M307.75 294.007L315.44 293.972C315.568 297.245 316.404 300.658 316.996 303.887C318.204 310.481 319.546 317.042 320.697 323.649C321.284 324.216 321.743 324.716 322.168 325.415C322.17 325.785 322.291 326.016 321.976 326.274C320.921 327.138 317.406 326.749 315.977 326.735C314.728 326.75 312.772 327.001 311.625 326.565C311.084 326.36 311.078 326.217 310.86 325.719C310.966 324.748 311.673 324.009 312.24 323.25C311.865 321.744 311.692 320.159 311.456 318.624C309.76 318.424 308.008 318.715 306.356 318.243L306.127 317.824C306.234 317.052 306.276 316.591 306.842 315.999C308.01 315.533 309.552 315.871 310.787 315.976C309.832 308.705 307.563 301.354 307.75 294.007Z"/>
	<path transform="matrix(4.608 0 0 4.608 0 -3.05176e-05)" d="M242.95 293.99L250.488 294.003C251.076 298.032 251.996 301.997 252.728 306C253.518 310.322 254.566 321.172 256.948 324.672C257.291 325.176 257.517 325.465 257.621 326.084C256.54 327.025 253.229 326.719 251.773 326.735C249.635 326.739 247.583 326.659 245.461 326.384C246.007 325.431 246.747 324.352 246.941 323.261C246.958 323.165 246.968 323.067 246.983 322.971C247.205 321.483 246.72 319.911 246.403 318.458C244.444 318.487 242.715 318.792 241.186 317.334L241.322 316.751C242.841 315.639 244.115 315.876 245.898 315.965C245.536 308.277 242.956 302.103 242.95 293.99Z"/>
	<path transform="matrix(4.608 0 0 4.608 0 -3.05176e-05)" d="M324.877 294.12C328.15 293.895 331.49 294.021 334.768 294.095C336.914 299.342 339.528 304.475 341.89 309.638C342.852 311.741 344.187 313.983 344.689 316.238C345.055 317.882 345.411 325.577 344.683 326.722L339.71 326.753C339.027 323.189 335.119 316.1 333.469 312.519C331.44 308.116 329.642 303.543 327.347 299.271C326.821 298.293 326.259 297.268 325.416 296.529C325.036 296.196 324.792 295.935 324.52 295.495C324.507 294.805 324.527 294.714 324.877 294.12Z"/>
	<path fill="#FE8E00" transform="matrix(4.608 0 0 4.608 0 -3.05176e-05)" d="M261.328 169.271C261.341 169.111 261.361 168.951 261.368 168.79C261.465 166.596 259.124 162.023 258.606 159.494C259.637 158.495 261.625 158.747 262.987 158.77C264.712 158.798 266.143 158.447 267.797 158.358C269.433 158.269 271.078 158.556 272.706 158.477C273.38 158.445 274.024 158.177 274.687 158.173C274.811 161.837 273.979 165.644 274.522 169.268C274.758 174.03 273.822 179.302 273.405 184.054C272.944 189.311 272.786 194.624 272.214 199.864C269.947 195.136 268.467 189.711 266.711 184.755C264.92 179.699 262.659 174.454 261.328 169.271Z"/>
	<defs>
		<linearGradient id="gradient_0" gradientUnits="userSpaceOnUse" x1="287.30981" y1="197.14905" x2="286.71088" y2="155.26486">
			<stop offset="0" stop-color="#FD5500"/>
			<stop offset="1" stop-color="#FFB001"/>
		</linearGradient>
	</defs>
	<path fill="url(#gradient_0)" transform="matrix(4.608 0 0 4.608 0 -3.05176e-05)" d="M277.7 158.362C278.213 157.335 278.74 156.298 279.954 155.989C282.861 155.251 292.837 155.269 295.644 156.339L295.271 156.634C295.087 157.419 295.131 158.075 295.199 158.874C294.644 162.194 290.93 171.048 289.51 174.947C286.443 183.371 283.454 193.254 279.838 201.313Q279.418 187.383 278.485 173.478C278.196 168.432 277.753 163.42 277.7 158.362Z"/>
	<path fill="#FE8E00" transform="matrix(4.608 0 0 4.608 0 -3.05176e-05)" d="M239.81 168.097C239.886 167.993 240.008 167.909 240.038 167.784C240.136 167.384 234.584 160.695 234.482 158.677C235.449 157.794 250.014 158.384 252.642 157.821C253.472 157.644 253.928 156.931 254.706 156.643C254.978 157.258 256.338 164.047 256.381 164.887C256.414 165.505 256.549 165.917 256.776 166.492L257.149 166.737Q259.625 177.963 261.851 189.242C262.661 193.152 263.609 197.04 264.29 200.975C260.249 197.866 254.333 188.145 251.04 183.633C247.317 178.529 243.129 173.456 239.81 168.097Z"/>
	<path fill="#FD6D00" transform="matrix(4.608 0 0 4.608 0 -3.05176e-05)" d="M269.13 270.856C271.088 270.661 273.098 270.747 275.055 270.913C270.815 272.577 265.67 272.993 261.19 273.906Q248.555 276.356 236.126 279.7Q223.749 283.136 211.647 287.441C208.125 288.678 204.538 290.566 200.906 291.371C197.69 292.084 194.159 291.563 190.88 291.655C182.874 291.881 187.427 296.433 185.309 298.681L184.892 298.613C184.059 298.028 183.588 297.215 183.03 296.384C180.807 293.285 178.585 292.057 174.941 291.171C179.714 289.103 184.778 287.455 189.717 285.818Q197.743 283.196 205.897 281.003Q214.051 278.81 222.309 277.051Q230.567 275.292 238.907 273.972Q247.247 272.653 255.645 271.776C260.109 271.306 264.649 271.186 269.13 270.856Z"/>
	<defs>
		<linearGradient id="gradient_1" gradientUnits="userSpaceOnUse" x1="225.01665" y1="205.23036" x2="224.04871" y2="164.49979">
			<stop offset="0" stop-color="#F94801"/>
			<stop offset="1" stop-color="#FF9C01"/>
		</linearGradient>
	</defs>
	<path fill="url(#gradient_1)" transform="matrix(4.608 0 0 4.608 0 -3.05176e-05)" d="M192.804 173.928C195.935 170.432 199.265 166.95 202.93 164.011C202.88 164.121 202.833 164.232 202.779 164.34C202.593 164.711 202.461 164.869 202.155 165.13L202.29 165.404C203.677 164.964 204.689 165.571 206.044 166.017C209.166 167.043 231.734 167.472 234.614 166.011C235.049 165.791 235.28 165.452 235.57 165.075C235.592 165.046 235.615 165.02 235.637 164.992L250.607 193.161C253.045 197.726 256.035 202.424 258.049 207.168C253.705 204.045 249.561 200.583 245.352 197.278Q235.602 189.762 225.942 182.129C223.448 180.168 217.733 174.989 215.235 173.916L214.865 174.001C210.512 174.105 206.283 174.942 201.875 174.881C198.946 174.839 195.348 173.783 192.804 173.928Z"/>
	<defs>
		<linearGradient id="gradient_2" gradientUnits="userSpaceOnUse" x1="313.96567" y1="197.0966" x2="311.37115" y2="152.79019">
			<stop offset="0" stop-color="#FD5200"/>
			<stop offset="1" stop-color="#FFB301"/>
		</linearGradient>
	</defs>
	<path fill="url(#gradient_2)" transform="matrix(4.608 0 0 4.608 0 -3.05176e-05)" d="M298.419 154.018L299.226 153.79C299.452 153.984 299.65 154.158 299.93 154.271C301.926 155.075 309.134 154.251 311.03 153.291C311.791 153.494 312.633 153.786 313.421 153.828C314.04 153.861 314.08 153.775 314.499 153.372C322.191 157.221 331.936 164.891 337.557 171.429C333.103 171.66 328.624 172.172 324.17 172.244C321.595 172.285 319.001 171.932 316.45 171.981C315.614 171.997 314.736 172.349 313.955 172.627L313.538 172.508C313.591 172.159 313.674 171.789 313.682 171.438Q314.449 169.996 315.161 168.527C315.171 167.816 315.348 166.965 315.678 166.336C315.725 166.247 315.784 166.166 315.836 166.08C315.724 166.103 315.602 166.1 315.498 166.149C314.74 166.501 315.603 166.301 314.909 166.452C314.827 166.469 314.745 166.48 314.663 166.495C312.341 168.8 310.429 171.899 308.525 174.564L296.46 191.361C293.921 194.884 291.444 198.943 288.281 201.918C291.406 186.976 294.254 171.938 297.668 157.062C297.835 156.042 298.16 155.02 298.419 154.018Z"/>
	<path fill="#FCFCDE" transform="matrix(4.608 0 0 4.608 0 -3.05176e-05)" d="M314.663 166.495C315.307 164.803 317.377 161.26 318.952 160.426C319.036 160.381 319.129 160.355 319.218 160.32L319.435 160.568C319.002 163.111 316.542 166.316 315.161 168.527C315.171 167.816 315.348 166.965 315.678 166.336C315.725 166.247 315.784 166.166 315.836 166.08C315.724 166.103 315.602 166.1 315.498 166.149C314.74 166.501 315.603 166.301 314.909 166.452C314.827 166.469 314.745 166.48 314.663 166.495Z"/>
	<defs>
		<linearGradient id="gradient_3" gradientUnits="userSpaceOnUse" x1="215.08884" y1="214.24724" x2="212.14392" y2="172.4881">
			<stop offset="0" stop-color="#F93601"/>
			<stop offset="1" stop-color="#FF8B00"/>
		</linearGradient>
	</defs>
	<path fill="url(#gradient_3)" transform="matrix(4.608 0 0 4.608 0 -3.05176e-05)" d="M192.804 173.928C195.348 173.783 198.946 174.839 201.875 174.881C206.283 174.942 210.512 174.105 214.865 174.001C215.19 174.834 215.788 175.449 216.391 176.094C218.618 178.475 221.138 180.6 223.447 182.905C229.291 188.74 234.966 194.77 240.734 200.682C244.953 205.005 249.448 209.252 253.386 213.829C249.312 212.256 244.688 210.86 240.945 208.618C238.17 206.956 235.994 204.293 233.728 202.025C229.843 198.137 225.878 193.95 221.717 190.372C219.275 192.461 216.762 194.774 214.904 197.412C213.908 197.463 212.922 197.531 211.926 197.467Q209.731 197.554 207.534 197.58C203.504 198.504 197.688 198.075 193.459 198.24C188.091 198.449 182.393 199.141 177.063 198.813C180.11 190.052 186.768 180.926 192.804 173.928Z"/>
	<path fill="#FEFEFE" transform="matrix(4.608 0 0 4.608 0 -3.05176e-05)" d="M200.471 192.949C203.859 193.711 208.967 195.63 211.926 197.467Q209.731 197.554 207.534 197.58C205.298 195.956 202.728 194.854 200.616 193.068C200.568 193.028 200.519 192.989 200.471 192.949Z"/>
	<defs>
		<linearGradient id="gradient_4" gradientUnits="userSpaceOnUse" x1="258.13962" y1="165.93269" x2="257.60605" y2="140.87016">
			<stop offset="0" stop-color="#FF9C01"/>
			<stop offset="1" stop-color="#FFD002"/>
		</linearGradient>
	</defs>
	<path fill="url(#gradient_4)" transform="matrix(4.608 0 0 4.608 0 -3.05176e-05)" d="M202.93 164.011C204.303 162.21 207.124 160.407 208.973 159.099Q210.978 157.656 213.052 156.314Q215.126 154.973 217.265 153.737Q219.403 152.501 221.601 151.373Q223.799 150.246 226.05 149.23Q228.302 148.213 230.601 147.311Q232.901 146.409 235.243 145.623Q237.584 144.836 239.962 144.168Q242.34 143.5 244.749 142.952C252.176 141.336 260.134 140.329 267.73 140.423C282.534 140.605 301.898 145.279 314.499 153.372C314.08 153.775 314.04 153.861 313.421 153.828C312.633 153.786 311.791 153.494 311.03 153.291C309.134 154.251 301.926 155.075 299.93 154.271C299.65 154.158 299.452 153.984 299.226 153.79L298.419 154.018C298.16 155.02 297.835 156.042 297.668 157.062L296.478 155.341C296.089 156.524 295.753 157.757 295.199 158.874C295.131 158.075 295.087 157.419 295.271 156.634L295.644 156.339C292.837 155.269 282.861 155.251 279.954 155.989C278.74 156.298 278.213 157.335 277.7 158.362C277.543 156.359 277.369 146.997 276.343 145.817C275.144 147.427 275.216 165.303 274.522 169.268C273.979 165.644 274.811 161.837 274.687 158.173C274.024 158.177 273.38 158.445 272.706 158.477C271.078 158.556 269.433 158.269 267.797 158.358C266.143 158.447 264.712 158.798 262.987 158.77C261.625 158.747 259.637 158.495 258.606 159.494C259.124 162.023 261.465 166.596 261.368 168.79C261.361 168.951 261.341 169.111 261.328 169.271C260.094 165.876 258.936 162.431 257.572 159.086C257.545 159.053 257.52 159.017 257.49 158.985C256.504 157.897 255.864 156.041 255.615 154.595C255.54 154.161 255.555 154.147 255.292 153.748L255.034 154.12C255.256 155.178 255.553 156.203 255.859 157.239L255.407 157.814C256.102 160.654 256.985 163.821 257.149 166.737L256.776 166.492C256.549 165.917 256.414 165.505 256.381 164.887C256.338 164.047 254.978 157.258 254.706 156.643C253.928 156.931 253.472 157.644 252.642 157.821C250.014 158.384 235.449 157.794 234.482 158.677C234.584 160.695 240.136 167.384 240.038 167.784C240.008 167.909 239.886 167.993 239.81 168.097C238.712 166.977 237.909 165.403 236.908 164.158C236.808 164.128 236.706 164.099 236.606 164.068C236.148 163.924 236.323 163.987 235.859 163.749L235.323 164.357L235.637 164.992C235.615 165.02 235.592 165.046 235.57 165.075C235.28 165.452 235.049 165.791 234.614 166.011C231.734 167.472 209.166 167.043 206.044 166.017C204.689 165.571 203.677 164.964 202.29 165.404L202.155 165.13C202.461 164.869 202.593 164.711 202.779 164.34C202.833 164.232 202.88 164.121 202.93 164.011Z"/>
	<path fill="#FCFCDE" transform="matrix(4.608 0 0 4.608 0 -3.05176e-05)" d="M231.895 157.528C233.818 159.606 235.418 161.753 236.908 164.158C236.808 164.128 236.706 164.099 236.606 164.068C236.148 163.924 236.323 163.987 235.859 163.749L235.323 164.357C233.827 162.839 232.682 159.476 231.895 157.528Z"/>
	<path fill="#FCFCDE" transform="matrix(4.608 0 0 4.608 0 -3.05176e-05)" d="M255.407 157.814C254.919 156.062 253.407 151.976 254.068 150.345C255.761 151.647 256.998 156.946 257.572 159.086C257.545 159.053 257.52 159.017 257.49 158.985C256.504 157.897 255.864 156.041 255.615 154.595C255.54 154.161 255.555 154.147 255.292 153.748L255.034 154.12C255.256 155.178 255.553 156.203 255.859 157.239L255.407 157.814Z"/>
	<path fill="#FCFCDE" transform="matrix(4.608 0 0 4.608 0 -3.05176e-05)" d="M296.478 155.341C297.013 153.609 297.741 150.107 299.201 148.99C299.56 150.435 298.783 152.588 298.419 154.018C298.16 155.02 297.835 156.042 297.668 157.062L296.478 155.341Z"/>
	<path fill="#0194EE" transform="matrix(4.608 0 0 4.608 0 -3.05176e-05)" d="M304.531 273.891C308.873 273.516 313.376 273.667 317.738 273.667C343.169 273.665 369.357 277.439 392.962 287.219C397.261 289 401.825 290.747 405.554 293.568C402.221 292.784 399.068 291.306 395.736 290.569C385.906 288.396 375.805 286.341 365.804 285.101C348.183 282.915 328.257 282.716 310.663 285.371C301.957 286.685 293.415 288.832 284.94 291.186Q281.144 292.433 277.362 293.721C275.323 292.678 273.22 292.146 270.959 291.841C268.114 291.458 260.739 290.939 258.522 292.784C255.623 295.197 259.983 297.641 259.811 300.05C259.538 300.659 259.188 300.967 258.645 301.329C257.705 301.957 255.214 303.479 254.173 303.273C252.821 300.792 252.301 294.572 251.93 291.587C248.597 291.845 245.125 291.601 241.774 291.572C240.751 298.658 238.329 305.583 237.328 312.696C235.643 314.303 233.952 315.411 231.89 316.491C231.508 313.868 231.123 312.497 229.193 310.673C230.379 308.785 231.311 307.036 231.639 304.797C232.067 301.884 231.861 297.699 229.993 295.312C227.36 291.948 221.472 291.892 217.55 291.521C222.004 290.39 226.262 288.783 230.624 287.362C235.006 285.935 239.491 284.669 243.942 283.47C263.87 278.104 283.962 275.236 304.531 273.891Z"/>
	<defs>
		<linearGradient id="gradient_5" gradientUnits="userSpaceOnUse" x1="331.13855" y1="238.33189" x2="327.19312" y2="171.3262">
			<stop offset="0" stop-color="#FD0001"/>
			<stop offset="1" stop-color="#FF8B00"/>
		</linearGradient>
	</defs>
	<path fill="url(#gradient_5)" transform="matrix(4.608 0 0 4.608 0 -3.05176e-05)" d="M337.557 171.429C351.408 185.086 360.363 206.208 362.957 225.232C363.567 229.705 362.936 234.259 363.555 238.701C357.971 232.397 351.925 226.417 346.554 219.932C350.631 218.905 355.288 218.139 359.038 216.239C354.302 216.181 349.697 216.95 344.996 217.372L319.5 219.524C315.75 219.867 308.267 221.188 304.724 220.309C305.414 219.155 335.026 202.862 337.775 201.345C342.069 198.974 347.584 196.879 351.074 193.447C347.267 194.371 343.75 196.451 340.093 197.867L314.129 207.873C309.301 209.745 304.454 211.946 299.508 213.449C307.102 205.686 314.819 198.065 322.357 190.245C325.084 187.417 328.456 184.515 330.772 181.404C330.992 180.754 331.356 180.197 331.58 179.547C331.045 179.447 330.79 179.525 330.27 179.644C328.118 180.723 324.633 183.993 322.467 185.662L306.587 198.068C302.37 201.341 297.979 204.544 294.036 208.137C296.57 204.074 298.636 199.629 300.896 195.402L313.682 171.438C313.674 171.789 313.591 172.159 313.538 172.508L313.955 172.627C314.736 172.349 315.614 171.997 316.45 171.981C319.001 171.932 321.595 172.285 324.17 172.244C328.624 172.172 333.103 171.66 337.557 171.429Z"/>
	<path fill="#FCFCDE" transform="matrix(4.608 0 0 4.608 0 -3.05176e-05)" d="M330.27 179.644C332.297 177.619 334.817 175.298 337.305 173.898C335.893 176.972 333.216 179.154 330.772 181.404C330.992 180.754 331.356 180.197 331.58 179.547C331.045 179.447 330.79 179.525 330.27 179.644Z"/>
	<path fill="#0194EE" transform="matrix(4.608 0 0 4.608 0 -3.05176e-05)" d="M214.904 197.412L221.221 197.528C230.211 206.094 239.04 214.897 247.876 223.624C250.57 226.285 263.508 239.764 265.491 240.621C267.338 239.886 269.485 239.652 271.449 239.416C273.743 238.512 276.791 238.332 279.236 237.934C282.204 237.606 285.148 236.932 288.093 236.437C289.812 235.544 292.87 235.426 294.823 235.135C306.033 233.461 317.267 231.197 328.42 229.14C334.51 228.016 340.926 226.27 347.139 226.284C350.444 229.575 353.329 233.243 356.291 236.837L367.336 250.142Q376.251 260.644 385.043 271.25C388.224 275.069 391.525 278.827 394.507 282.804C391.754 281.918 388.186 281.772 385.763 280.163C380.803 276.869 374.714 268.191 370.755 263.488L356.891 247.267C352.195 241.705 347.613 236.055 342.627 230.746L318.973 256.095C315.819 259.479 313.018 263.038 309.625 266.214C304.775 266.396 299.878 266.253 295.02 266.26Q284.724 266.347 274.429 266.218Q247.912 241.244 221.735 215.914C215.225 222.679 208.483 229.304 201.774 235.876C199.308 238.292 196.718 240.576 194.293 243.033Q180.218 257.551 165.585 271.506C162.327 274.651 159.292 278.035 155.901 281.038C150.035 281.514 143.822 281.127 137.938 280.948C135.747 278.597 134.298 275.174 132.721 272.387Q128.226 264.511 123.852 256.567L93.4184 202.346C97.6804 201.624 102.067 201.798 106.372 201.673L128.821 200.989Q152.955 200.179 177.063 198.813C182.393 199.141 188.091 198.449 193.459 198.24C197.688 198.075 203.504 198.504 207.534 197.58Q209.731 197.554 211.926 197.467C212.922 197.531 213.908 197.463 214.904 197.412Z"/>
	<path fill="#191771" transform="matrix(4.608 0 0 4.608 0 -3.05176e-05)" d="M107.523 219.502Q111.416 219.709 115.313 219.809C114.409 220.588 113.571 221.43 112.723 222.27C111.818 223.16 110.861 223.945 109.871 224.735C109.081 222.977 108.205 221.314 107.523 219.502Z"/>
	<path fill="#191771" transform="matrix(4.608 0 0 4.608 0 -3.05176e-05)" d="M270.916 241.12C274 240.703 277.458 239.424 280.529 239.546C279.426 241.277 277.717 242.764 276.331 244.281Q273.186 244.582 270.029 244.675C269.151 243.842 268.321 242.999 267.508 242.101C268.3 241.409 269.907 241.326 270.916 241.12Z"/>
	<path fill="#191771" transform="matrix(4.608 0 0 4.608 0 -3.05176e-05)" d="M291.221 256.364L294.891 256.294C293.739 257.804 290.592 262.317 288.824 262.599L288.081 262.02C286.266 260.324 284.559 258.489 282.816 256.718C285.616 256.66 288.423 256.49 291.221 256.364Z"/>
	<path fill="#191771" transform="matrix(4.608 0 0 4.608 0 -3.05176e-05)" d="M136.262 271.016C140.147 271.385 144.087 271.695 147.988 271.789C147.199 272.865 146.28 273.841 145.393 274.836L143.318 276.758L139.049 276.707C138.13 274.803 137.148 272.938 136.262 271.016Z"/>
	<path fill="#191771" transform="matrix(4.608 0 0 4.608 0 -3.05176e-05)" d="M283.511 239.02C287.696 237.83 292.195 237.382 296.512 236.944C294.991 238.96 292.728 241.432 290.77 243.04C286.914 243.578 282.95 243.623 279.064 243.954L283.511 239.02Z"/>
	<path fill="#191771" transform="matrix(4.608 0 0 4.608 0 -3.05176e-05)" d="M287.173 245.367C287.7 245.342 287.784 245.24 288.23 245.559C287.912 247.323 282.116 253.08 280.608 254.943C279.96 254.124 279.198 253.412 278.457 252.679L274.738 249.16C275.542 248.157 276.341 247.205 277.255 246.298C280.486 245.663 283.892 245.565 287.173 245.367Z"/>
	<path fill="#191771" transform="matrix(4.608 0 0 4.608 0 -3.05176e-05)" d="M126.312 253.058C131.497 253.834 136.989 254.023 142.231 254.43C140.364 256.012 138.572 257.689 136.761 259.336C135.139 260.805 133.452 262.236 132.044 263.918C130.472 260.412 127.049 256.817 126.312 253.058Z"/>
	<path fill="#191771" transform="matrix(4.608 0 0 4.608 0 -3.05176e-05)" d="M314.293 233.58C314.562 233.607 314.413 233.556 314.673 233.86C314.075 235.482 309.304 240.352 307.835 241.798C303.516 242.332 299.111 242.308 294.775 242.745L294.367 242.447C294.42 242.176 294.411 242.139 294.558 241.854C295.685 239.672 299.281 236.511 301.523 235.688C303.083 235.116 304.861 235.201 306.497 234.972C309.1 234.608 311.705 234.043 314.293 233.58Z"/>
	<path fill="#191771" transform="matrix(4.608 0 0 4.608 0 -3.05176e-05)" d="M308.291 255.375L314.585 255.127C312.51 258.022 309.843 260.685 307.401 263.278C304.23 263.261 301.047 263.379 297.875 263.437C296.1 263.471 293.399 263.863 291.749 263.329C291.96 261.762 296.549 257.387 297.811 256.11C301.227 255.52 304.827 255.535 308.291 255.375Z"/>
	<path fill="#191771" transform="matrix(4.608 0 0 4.608 0 -3.05176e-05)" d="M304.18 244.105C304.64 244.038 304.992 244.066 305.45 244.136L305.491 244.416C302.727 247.599 300.037 251.012 296.974 253.907C293.076 254.667 288.745 254.567 284.77 254.777C284.26 254.892 284.303 254.946 283.775 254.743C283.956 253.138 290.186 246.807 291.617 245.139C295.784 244.666 299.995 244.374 304.18 244.105Z"/>
	<path fill="#191771" transform="matrix(4.608 0 0 4.608 0 -3.05176e-05)" d="M336.197 229.857L336.611 229.929C336.494 230.605 335.893 231.103 335.456 231.604C333.376 233.981 330.857 237.547 328.384 239.317C325.602 241.308 315.485 241.255 311.737 241.508C311.492 241.435 311.652 241.502 311.331 241.183C311.407 240.93 311.428 240.813 311.587 240.566C312.711 238.814 316.603 234.228 318.309 233.234C321.026 231.65 332.483 230.426 336.197 229.857Z"/>
	<path fill="#191771" transform="matrix(4.608 0 0 4.608 0 -3.05176e-05)" d="M123.627 235.693C123.657 235.695 123.687 235.696 123.716 235.701C127.409 236.362 136.35 237.406 139.819 236.787C136.877 239.846 133.52 242.625 130.372 245.48C128.378 247.183 126.413 248.929 124.708 250.926C122.926 247.306 120.845 243.34 118.508 240.063C120.177 238.552 121.868 237.098 123.627 235.693Z"/>
	<path fill="#191771" transform="matrix(4.608 0 0 4.608 0 -3.05176e-05)" d="M321.386 242.6C322.822 242.405 324.367 242.432 325.82 242.358C322.901 245.989 319.769 249.447 316.683 252.936L304.92 253.533C303.836 253.612 301.34 254.022 300.477 253.473C300.971 251.513 307.227 245.468 309.025 243.533C313.149 243.442 317.279 242.977 321.386 242.6Z"/>
	<path fill="#191771" transform="matrix(4.608 0 0 4.608 0 -3.05176e-05)" d="M119.104 220.282L135.649 221.038C132.584 224.342 128.898 227.297 125.532 230.304Q123.962 231.655 122.371 232.981C119.655 233.054 116.873 232.671 114.179 232.34Q112.934 229.626 111.457 227.03C113.658 224.729 116.424 222.005 119.104 220.282Z"/>
	<path fill="#191771" transform="matrix(4.608 0 0 4.608 0 -3.05176e-05)" d="M180.204 223.733C184.472 223.692 188.735 224.185 193.003 224.286C191.434 226.308 189.436 228.105 187.68 229.974C185.471 232.325 183.338 234.84 181.024 237.082C180.451 237.637 180.243 237.827 179.441 237.813C175.12 237.522 170.236 237.59 166.022 236.547C170.378 232.002 175.605 228.071 180.204 223.733Z"/>
	<path fill="#191771" transform="matrix(4.608 0 0 4.608 0 -3.05176e-05)" d="M139.465 221.463C143.702 221.062 151.622 222.134 156.347 222.347C151.521 225.998 147.063 230.487 142.569 234.557C140.337 235.073 129.17 233.611 125.917 233.481C130.38 229.46 134.752 225.186 139.465 221.463Z"/>
	<path fill="#191771" transform="matrix(4.608 0 0 4.608 0 -3.05176e-05)" d="M206.192 201.633C208.962 201.471 211.75 201.492 214.524 201.454C208.495 208.502 201.736 215.125 195.349 221.863L191.688 221.645C188.813 221.474 185.938 221.264 183.056 221.285C187.017 217.313 191.473 213.659 195.63 209.883C198.289 207.467 201.539 203.904 204.523 202.012C205.041 201.684 205.595 201.652 206.192 201.633Z"/>
	<path fill="#191771" transform="matrix(4.608 0 0 4.608 0 -3.05176e-05)" d="M160.356 222.587C165.745 222.769 171.149 223.164 176.53 223.508C174.995 225.228 173.057 226.767 171.331 228.3L162.152 236.483C156.798 236.255 151.312 235.488 145.967 234.964C149.534 231.976 156.833 224.147 160.356 222.587Z"/>
	<path fill="#191771" transform="matrix(4.608 0 0 4.608 0 -3.05176e-05)" d="M163.094 239.16C168.024 239.585 172.943 239.942 177.868 240.451C173.894 244.51 170.187 248.939 166.08 252.847C165.403 253.491 165.125 253.655 164.189 253.635C158.965 253.114 153.709 252.774 148.476 252.339C153.086 247.743 158.238 243.505 163.094 239.16Z"/>
	<path fill="#191771" transform="matrix(4.608 0 0 4.608 0 -3.05176e-05)" d="M142.984 237.5C148.333 237.422 154.092 238.34 159.487 238.639C155.032 243.467 149.551 247.263 145.052 252.048C139.595 251.501 134.041 250.888 128.558 250.759C133.032 246.081 138.251 241.938 142.984 237.5Z"/>
	<path fill="#191771" transform="matrix(4.608 0 0 4.608 0 -3.05176e-05)" d="M153.157 203.86C153.756 203.803 153.926 203.743 154.457 204.002C154.426 204.149 154.433 204.308 154.364 204.441C154.149 204.858 139.431 217.966 138.146 218.812Q131.298 218.295 124.438 217.965L121.781 217.73C125.795 213.779 132.017 207.832 136.456 204.531C141.969 204.043 147.621 204.1 153.157 203.86Z"/>
	<path fill="#191771" transform="matrix(4.608 0 0 4.608 0 -3.05176e-05)" d="M145.926 254.774C150.111 255.617 158.613 256.013 162.97 255.875C160.541 258.834 152.842 267.598 150.079 269.516C147.43 269.474 136.534 268.797 134.602 267.759C133.885 267.374 133.664 266.987 133.466 266.221C133.89 264.762 144.063 256.126 145.926 254.774Z"/>
	<path fill="#191771" transform="matrix(4.608 0 0 4.608 0 -3.05176e-05)" d="M124.885 204.853C127.331 204.645 129.791 204.704 132.244 204.716C127.538 208.983 122.884 213.679 117.827 217.509C114.528 217.529 111.107 217.093 107.811 216.855L105.431 216.721C103.864 212.963 101.508 209.412 99.6312 205.78C108.038 205.558 116.499 205.479 124.885 204.853Z"/>
	<path fill="#191771" transform="matrix(4.608 0 0 4.608 0 -3.05176e-05)" d="M171.969 203.125C173.912 202.982 175.887 202.995 177.836 202.945C174.694 205.481 171.765 208.341 168.748 211.032C165.537 213.897 162.002 216.706 159.151 219.917L149.009 219.317C146.704 219.246 144.4 219.132 142.097 219.034C145.276 215.95 148.625 213.05 151.923 210.097C154.404 207.876 156.819 205.55 159.47 203.533Q165.721 203.389 171.969 203.125Z"/>
	<path fill="#191771" transform="matrix(4.608 0 0 4.608 0 -3.05176e-05)" d="M196.011 202.141C197.514 202.034 199.03 202.006 200.536 201.944C193.684 208.311 186.631 214.45 179.76 220.795C175.93 220.919 171.983 220.551 168.148 220.39L162.759 220.138C165.09 217.659 180.25 203.472 182.571 202.812C185.695 201.925 192.46 202.282 196.011 202.141Z"/>
</svg>
